<svg xmlns="http://www.w3.org/2000/svg" viewBox="0 0 397.75 78.35"><defs><style>.cls-1{fill:#231f20;}.cls-2{fill:#29abe2;}</style></defs><title>Asset 1</title><g id="Layer_2" data-name="Layer 2"><g id="Layer_1-2" data-name="Layer 1"><path class="cls-1" d="M0,1.2H3.52V30.73a23.78,23.78,0,0,1,2.22-2.58A20.67,20.67,0,0,1,20.9,21.87a20.62,20.62,0,0,1,15.17,6.28,20.75,20.75,0,0,1,6.27,15.2,20.71,20.71,0,0,1-6.27,15.16A20.63,20.63,0,0,1,20.9,64.8,20.68,20.68,0,0,1,5.74,58.51a23.78,23.78,0,0,1-2.22-2.58V63.7H0ZM3.52,39.68V47a17,17,0,0,0,4.84,8.83,17.09,17.09,0,0,0,12.54,5.2,17.15,17.15,0,0,0,12.54-5.18,17,17,0,0,0,5.19-12.52,17.09,17.09,0,0,0-5.19-12.54A17.12,17.12,0,0,0,20.9,25.62,17.09,17.09,0,0,0,8.36,30.81,17.08,17.08,0,0,0,3.52,39.68Z"/><path class="cls-1" d="M62.39,56.51a16.88,16.88,0,0,0,11.8,4.54,17.13,17.13,0,0,0,12.54-5.2c.44-.44.86-.9,1.25-1.37l3.71,1.33a22.33,22.33,0,0,1-2.31,2.7,21.45,21.45,0,0,1-30.35,0,20.73,20.73,0,0,1-6.29-15.2A20.69,20.69,0,0,1,59,28.15a21.56,21.56,0,0,1,28.48-1.71c.62.52,1.25,1.09,1.87,1.71.24.24.46.47.67.71l-2.66,2.65ZM84.81,29.13a17.75,17.75,0,0,0-23.12,1.66,17,17,0,0,0-5.2,12.52A16.92,16.92,0,0,0,60,53.94Z"/><path class="cls-1" d="M116.07,60.26,107.4,78.35H104l10.35-21.72-15-31.29h4l12.73,27.5,12.74-27.5h3.94l-16.68,35Z"/><path class="cls-1" d="M206.81,33.9V63.7h-3.52V25.34h3.52V27.8A15.39,15.39,0,0,1,218,23a14.78,14.78,0,0,1,15.43,15V63.7h-3.52V38.35A11.26,11.26,0,0,0,226.36,30,11.93,11.93,0,0,0,209.62,30,13,13,0,0,0,206.81,33.9Z"/><path class="cls-1" d="M288.53,63.7H285V55.89a27.36,27.36,0,0,1-2.23,2.62,21.47,21.47,0,0,1-36.64-15.16,20.69,20.69,0,0,1,6.29-15.2,21.47,21.47,0,0,1,30.35,0A27.36,27.36,0,0,1,285,30.77V1.2h3.51ZM285,46.83v-7a17.75,17.75,0,0,0-35.16,3.48A17.76,17.76,0,0,0,285,46.83Z"/><path class="cls-2" d="M166.42,17.5a24.28,24.28,0,1,1-24.28,24.28A24.31,24.31,0,0,1,166.42,17.5m0-3A27.28,27.28,0,1,0,193.7,41.78,27.28,27.28,0,0,0,166.42,14.5Z"/><path d="M319.44,3.53v1H319V3.51c0-1.64-.61-3-2.38-3s-2.41,1.36-2.41,3v6.88c0,1.64.62,3,2.41,3S319,12,319,10.39V8.91h.42v1.46c0,1.87-.76,3.41-2.82,3.41s-2.81-1.54-2.81-3.41V3.53c0-1.87.77-3.41,2.81-3.41S319.44,1.66,319.44,3.53Z"/><path d="M316.62,13.9c-1.87,0-2.93-1.29-2.93-3.53V3.53c0-2.24,1.06-3.53,2.93-3.53s2.95,1.29,2.95,3.53V4.69h-.67V3.51c0-1.31-.4-2.88-2.26-2.88s-2.28,1.57-2.28,2.88v6.88c0,1.3.39,2.86,2.28,2.86s2.26-1.56,2.26-2.86V8.79h.67v1.58C319.57,12.61,318.49,13.9,316.62,13.9Zm0-13.65c-2.34,0-2.68,2.05-2.68,3.28v6.84c0,1.23.34,3.28,2.68,3.28s2.7-2.05,2.7-3.28V9h-.17v1.35c0,2-.89,3.11-2.51,3.11s-2.53-1.11-2.53-3.11V3.51c0-2,.9-3.13,2.53-3.13s2.51,1.11,2.51,3.13v.93h.17V3.53C319.32,2.3,319,.25,316.62.25Z"/><path d="M326.6,6.66v.39h-4v6.23h4.71v.4h-5.14V.22h5.14V.63h-4.71v6Z"/><path d="M327.47,13.8h-5.38V.1h5.38V.75h-4.71V6.54h4v.63h-4v6h4.71Zm-5.13-.25h4.88V13.4h-4.71V6.92h4V6.79h-4V.5h4.71V.35h-4.88Z"/><path d="M330.12,13.68V.22h.42V13.28h4.52v.4Z"/><path d="M335.18,13.8H330V.1h.67V13.15h4.52Zm-4.94-.25h4.69V13.4h-4.52V.35h-.17Z"/><path d="M342.17,6.66v.39h-4v6.23h4.71v.4h-5.13V.22h5.13V.63h-4.71v6Z"/><path d="M343.05,13.8h-5.39V.1h5.39V.75h-4.71V6.54h4v.63h-4v6h4.71Zm-5.14-.25h4.89V13.4h-4.71V6.92h4V6.79h-4V.5h4.71V.35h-4.89Z"/><path d="M348.38.22c2,0,2.6,1,2.6,2.79v.86c0,1.5-.4,2.41-1.92,2.64,1.59.23,2.19,1.33,2.19,2.88v1.19c0,1.91-.81,3.1-2.85,3.1h-2.71V.22Zm-.51,6.12c1.86,0,2.69-.45,2.69-2.41V3c0-1.58-.48-2.4-2.18-2.4h-2.26V6.34Zm.53,6.94c1.77,0,2.43-1,2.43-2.7V9.37c0-1.94-.93-2.65-2.77-2.65h-1.94v6.56Z"/><path d="M348.4,13.8h-2.83V.1h2.81c1.89,0,2.72.9,2.72,2.91v.86c0,1.13-.19,2.22-1.48,2.64,1.16.36,1.75,1.33,1.75,2.88v1.19C351.37,12.72,350.37,13.8,348.4,13.8Zm-2.58-.25h2.58c1.83,0,2.72-1,2.72-3V9.39c0-1.65-.68-2.56-2.08-2.76l-.84-.12.84-.13c1.32-.2,1.81-.88,1.81-2.51V3c0-1.89-.71-2.66-2.47-2.66h-2.56Zm2.58-.15H346V6.6h2.07c2,0,2.89.85,2.89,2.77v1.21C351,12.48,350.12,13.4,348.4,13.4Zm-2.16-.25h2.16c1.57,0,2.3-.81,2.3-2.57V9.37c0-1.79-.77-2.52-2.64-2.52h-1.82Zm1.63-6.69H346V.5h2.39c1.64,0,2.3.73,2.3,2.53v.9C350.68,6.06,349.69,6.46,347.87,6.46Zm-1.63-.25h1.63c1.73,0,2.56-.34,2.56-2.28V3c0-1.66-.55-2.28-2.05-2.28h-2.14Z"/><path d="M356.69.22c2,0,2.77,1.17,2.77,3V4.45c0,1.65-.65,2.56-2.14,2.83A2.38,2.38,0,0,1,359.46,10v2.11a2.91,2.91,0,0,0,.36,1.6h-.46a3,3,0,0,1-.32-1.6V10c0-2-1.2-2.5-3-2.5h-1.65v6.21H354V.22Zm-.6,6.85c1.87,0,3-.48,3-2.56V3.28c0-1.64-.64-2.65-2.37-2.65h-2.23V7.07Z"/><path d="M360.07,13.8h-.77l0-.05a3.27,3.27,0,0,1-.35-1.67V10c0-1.67-.84-2.38-2.82-2.38h-1.52V13.8h-.68V.1h2.8c1.92,0,2.89,1,2.89,3.14V4.45c0,1.53-.55,2.44-1.72,2.82a2.49,2.49,0,0,1,1.72,2.7v2.11a2.63,2.63,0,0,0,.35,1.53Zm-.64-.25h.17a3.24,3.24,0,0,1-.27-1.47V10a2.25,2.25,0,0,0-2-2.57l-.74-.11.73-.14c1.41-.25,2-1.08,2-2.7V3.24c0-1.95-.86-2.89-2.64-2.89h-2.55v13.2h.18V7.34h1.77c1.43,0,3.07.3,3.07,2.63v2.11A3.2,3.2,0,0,0,359.43,13.55Zm-3.34-6.36h-1.77V.5h2.35c1.68,0,2.49.91,2.49,2.78V4.51C359.16,6.73,357.94,7.19,356.09,7.19Zm-1.52-.25h1.52c1.79,0,2.82-.4,2.82-2.43V3.28c0-1.73-.71-2.53-2.24-2.53h-2.1Z"/><path d="M363.71,10.51l-.79,3.17h-.38L365.79.2h.59l3.33,13.48h-.42l-.79-3.17Zm.08-.39h4.63L366.07.7Z"/><path d="M369.87,13.8h-.68l-.79-3.17h-4.59L363,13.8h-.64L365.69.08h.79Zm-.49-.25h.17L366.28.33h-.17l2.47,9.92h-4.95L366,.33h-.16L362.7,13.55h.12l.79-3.17h5ZM364,10h4.31l-2.18-8.77Z"/><path d="M374.25,13.68V.63h-2.92V.22h6.28V.63h-2.94V13.68Z"/><path d="M374.8,13.8h-.68V.75H371.2V.1h6.54V.75H374.8Zm-.43-.25h.18V.5h2.94V.35h-6V.5h2.92Z"/><path d="M380.48.22V13.68h-.43V.22Z"/><path d="M380.6,13.8h-.67V.1h.67Zm-.42-.25h.17V.35h-.17Z"/><path d="M383.69,13.68h-.41V.22h.6l4.73,12.59V.22h.4V13.68h-.52L383.69.84Z"/><path d="M389.14,13.8h-.73l-4.6-12.27V13.8h-.65V.1H384l0,.08,4.49,12V.1h.65Zm-.56-.25h.31V.35h-.15V13.5L383.79.35h-.15Zm-5.17,0h.15V.35h-.15Z"/><path d="M397.44,3.53v.88H397v-.9c0-1.64-.61-3-2.38-3s-2.4,1.36-2.4,3v6.88c0,1.64.61,3,2.4,3S397,12,397,10.39V7.33h-2.09V7h2.52v3.42c0,1.87-.77,3.41-2.83,3.41s-2.81-1.54-2.81-3.41V3.53c0-1.87.77-3.41,2.81-3.41S397.44,1.66,397.44,3.53Z"/><path d="M394.61,13.9c-1.86,0-2.93-1.29-2.93-3.53V3.53c0-2.24,1.07-3.53,2.93-3.53s2.95,1.29,2.95,3.53v1h-.67v-1c0-1.31-.39-2.88-2.26-2.88s-2.28,1.57-2.28,2.88v6.88c0,1.3.4,2.86,2.28,2.86s2.26-1.56,2.26-2.86V7.46h-2.1V6.83h2.77v3.54C397.56,12.61,396.49,13.9,394.61,13.9Zm0-13.65c-2.33,0-2.68,2.05-2.68,3.28v6.84c0,1.23.35,3.28,2.68,3.28s2.7-2.05,2.7-3.28V7.08H395v.13h2.1v3.18c0,2-.89,3.11-2.51,3.11s-2.53-1.11-2.53-3.11V3.51c0-2,.9-3.13,2.53-3.13s2.51,1.11,2.51,3.13v.78h.17V3.53C397.31,2.3,397,.25,394.61.25Z"/><path d="M320.13,22.27c0,4.15-5.66,5.54-5.75,10.67V33H320v.45h-6.13v-.32c0-5.58,5.75-6.85,5.75-10.86,0-1.87-.59-3.4-2.66-3.4s-2.64,1.61-2.64,3.4v.81h-.45v-.79c0-2.06.81-3.85,3.11-3.85S320.13,20.16,320.13,22.27Z"/><path d="M320.17,33.6h-6.38v-.45c0-3.07,1.73-4.88,3.26-6.48,1.28-1.33,2.49-2.59,2.49-4.38,0-2.21-.83-3.28-2.54-3.28-2.08,0-2.51,1.79-2.51,3.28v.94h-.7v-.92c0-2.52,1.18-4,3.23-4s3.23,1.37,3.23,3.94c0,2-1.29,3.39-2.66,4.83s-3,3.18-3.08,5.8h5.66ZM314,33.35h5.88v-.2h-5.66v-.21c0-2.74,1.62-4.4,3.14-6,1.34-1.4,2.6-2.73,2.6-4.66,0-2.44-1-3.69-3-3.69-2.59,0-3,2.34-3,3.73V23h.2v-.69c0-2.27,1-3.53,2.76-3.53s2.79,1.19,2.79,3.53c0,1.89-1.24,3.18-2.56,4.55-1.57,1.64-3.19,3.34-3.19,6.31Z"/><path d="M322.36,22.23c0-2.11.9-3.77,3.18-3.77s3.17,1.66,3.17,3.77v7.58c0,2.08-.89,3.77-3.17,3.77s-3.18-1.69-3.18-3.77Zm.47,7.58c0,1.85.73,3.34,2.71,3.34s2.7-1.49,2.7-3.34v-7.6c0-1.83-.72-3.32-2.7-3.32s-2.71,1.49-2.71,3.32Z"/><path d="M325.54,33.7c-2.1,0-3.3-1.42-3.3-3.89V22.23c0-2.48,1.2-3.9,3.3-3.9s3.29,1.42,3.29,3.9v7.58C328.83,32.28,327.63,33.7,325.54,33.7Zm0-15.12c-2.65,0-3.05,2.29-3.05,3.65v7.58c0,1.36.4,3.64,3.05,3.64s3-2.28,3-3.64V22.23C328.58,20.87,328.19,18.58,325.54,18.58Zm0,14.7c-1.83,0-2.83-1.24-2.83-3.47v-7.6c0-2.22,1-3.45,2.83-3.45s2.83,1.23,2.83,3.45v7.6C328.37,32,327.36,33.28,325.54,33.28Zm0-14.27c-2.25,0-2.58,2-2.58,3.2v7.6c0,1.47.45,3.22,2.58,3.22s2.58-1.75,2.58-3.22v-7.6C328.12,21,327.78,19,325.54,19Z"/><path d="M338.27,27.45l-3.47-8.88h.47l3.25,8.24,3.26-8.24h.49l-3.53,8.88v6h-.47Z"/><path d="M338.86,33.6h-.72V27.47l-3.53-9h.74l3.17,8,3.18-8h.75l-.06.17-3.53,8.86Zm-.47-.25h.22v-6l3.47-8.71h-.22l-3.35,8.46-3.34-8.46H335l3.41,8.76Z"/><path d="M349.32,25.7v.42h-4.39V33h5.22v.45h-5.69V18.57h5.69V19h-5.22V25.7Z"/><path d="M350.27,33.6h-5.93V18.44h5.93v.7h-5.21v6.43h4.38v.68h-4.38V32.9h5.21Zm-5.68-.25H350v-.2h-5.21V26h4.38v-.18h-4.38V18.89H350v-.2h-5.43Z"/><path d="M353.64,30l-.87,3.51h-.43l3.6-14.92h.66l3.68,14.92h-.47L358.94,30Zm.08-.43h5.13L356.26,19.1Z"/><path d="M360.44,33.6h-.72l-.88-3.52h-5.1l-.88,3.52h-.68l3.66-15.18h.86Zm-.53-.25h.21L356.5,18.67h-.22l2.73,11h-5.45l2.67-11H356L352.5,33.35h.17l.87-3.52H359Zm-6-3.94h4.81l-2.43-9.79Z"/><path d="M365.48,18.57c2.21,0,3.06,1.3,3.06,3.34v1.34c0,1.83-.72,2.83-2.36,3.13a2.64,2.64,0,0,1,2.36,3V31.7a3.08,3.08,0,0,0,.41,1.77h-.52a3.47,3.47,0,0,1-.36-1.77V29.36c0-2.19-1.32-2.77-3.25-2.77H363v6.88h-.46V18.57Zm-.66,7.58c2.06,0,3.25-.54,3.25-2.84V22c0-1.81-.7-2.94-2.62-2.94H363v7.14Z"/><path d="M369.19,33.6h-.82l0-.06A3.61,3.61,0,0,1,368,31.7V29.36c0-1.85-.94-2.64-3.13-2.64h-1.71V33.6h-.72V18.44h3.08c2.12,0,3.2,1.17,3.2,3.47v1.34c0,1.7-.62,2.71-1.94,3.12a2.76,2.76,0,0,1,1.94,3V31.7a2.91,2.91,0,0,0,.38,1.7Zm-.69-.25h.22a3.65,3.65,0,0,1-.3-1.65V29.36c0-1.69-.74-2.62-2.26-2.86l-.74-.11.74-.13c1.56-.29,2.26-1.21,2.26-3V21.91c0-2.17-1-3.22-2.95-3.22h-2.83V33.35h.22V26.47h2c1.57,0,3.38.33,3.38,2.89V31.7A3.6,3.6,0,0,0,368.5,33.35Zm-3.68-7.08h-2V18.89h2.59c1.85,0,2.75,1,2.75,3.06v1.36C368.2,25.77,366.85,26.27,364.82,26.27ZM363.11,26h1.71c1.93,0,3.13-.45,3.13-2.71V22c0-1.92-.79-2.81-2.5-2.81h-2.34Z"/><path d="M377.38,22.17v.27h-.47v-.3c0-1.76-.66-3.25-2.6-3.25s-2.62,1.47-2.62,3.23c0,3.81,5.71,3.71,5.71,7.75,0,2.07-.85,3.71-3.13,3.71s-3.11-1.64-3.11-3.71v-.72h.45v.74c0,1.81.7,3.24,2.66,3.24s2.66-1.43,2.66-3.24c0-3.77-5.71-3.64-5.71-7.75,0-2.17.92-3.66,3.07-3.68S377.38,20.12,377.38,22.17Z"/><path d="M374.27,33.7c-2.09,0-3.24-1.36-3.24-3.83V29h.7v.87c0,1.42.44,3.11,2.54,3.11s2.53-1.69,2.53-3.11c0-1.77-1.31-2.65-2.7-3.58s-3-2-3-4.17c0-2.43,1.13-3.78,3.19-3.81s3.21,1.37,3.21,3.84v.4h-.72v-.43c0-1.43-.43-3.13-2.47-3.13s-2.49,1.69-2.49,3.11c0,1.81,1.32,2.7,2.73,3.64s3,2,3,4.11C377.52,32.34,376.37,33.7,374.27,33.7Zm-3-4.43v.6c0,1.34.39,3.58,3,3.58s3-2.24,3-3.58c0-2-1.45-3-2.86-3.9s-2.84-1.9-2.84-3.85c0-2.17,1-3.36,2.74-3.36S377,20,377,22.14v.18h.22v-.15c0-1.34-.38-3.59-3-3.59s-2.94,2-2.94,3.56c0,2,1.47,3,2.89,4s2.81,1.88,2.81,3.79c0,2.17-1,3.36-2.78,3.36s-2.79-1.19-2.79-3.36v-.62Z"/><path d="M383.53,22.23c0-2.09.89-3.77,3.15-3.77s3.19,1.68,3.19,3.77v7.58c0,2.08-.89,3.77-3.19,3.77s-3.15-1.69-3.15-3.77Zm.47,7.6c0,1.83.7,3.32,2.68,3.32s2.72-1.49,2.72-3.32V22.21c0-1.83-.72-3.32-2.72-3.32S384,20.38,384,22.21Z"/><path d="M386.68,33.7c-2.08,0-3.28-1.42-3.28-3.89V22.23c0-2.48,1.2-3.9,3.28-3.9s3.32,1.42,3.32,3.9v7.58C390,32.28,388.79,33.7,386.68,33.7Zm0-15.12c-2.63,0-3,2.29-3,3.65v7.58c0,1.36.4,3.64,3,3.64s3.07-2.28,3.07-3.64V22.23C389.75,20.87,389.35,18.58,386.68,18.58Zm0,14.7c-1.81,0-2.81-1.23-2.81-3.45V22.21c0-2.22,1-3.45,2.81-3.45s2.85,1.23,2.85,3.45v7.62C389.53,32.05,388.52,33.28,386.68,33.28Zm0-14.27c-2.11,0-2.56,1.74-2.56,3.2v7.62c0,1.46.45,3.2,2.56,3.2s2.6-1.74,2.6-3.2V22.21C389.28,20.75,388.83,19,386.68,19Z"/><path d="M396.79,26.06v.45h-4.17v7h-.47V18.57h5.47V19h-5v7Z"/><path d="M392.74,33.6H392V18.44h5.72v.7h-5v6.8h4.18v.69h-4.18Zm-.46-.25h.21v-7h4.18v-.19h-4.18v-7.3h5v-.2h-5.22Z"/><path d="M319.55,39.15c3.68,0,4.87,1.84,4.87,5.23V46c0,2.81-.76,4.51-3.61,4.94,3,.43,4.12,2.49,4.12,5.41V58.6c0,3.57-1.52,5.81-5.34,5.81H314.5V39.15Zm-1,11.47c3.5,0,5.05-.83,5.05-4.51V44.42c0-3-.9-4.51-4.08-4.51h-4.26V50.62Zm1,13c3.32,0,4.54-1.88,4.54-5V56.33c0-3.65-1.73-5-5.19-5h-3.65v12.3Z"/><path d="M319.59,64.66h-5.34V38.9h5.3c3.54,0,5.12,1.69,5.12,5.48V46c0,2.11-.36,4.14-2.75,4.94,2.16.7,3.26,2.52,3.26,5.41V58.6C325.18,62.62,323.3,64.66,319.59,64.66Zm-4.84-.5h4.84c3.42,0,5.09-1.82,5.09-5.56V56.36c0-3.09-1.28-4.78-3.9-5.16L319.11,51l1-.15a13.93,13.93,0,0,1-1.49.06H315V39.66h4.51c3.07,0,4.33,1.38,4.33,4.76v1.69c0,3-1,4.15-2.94,4.57,2.35-.41,3.23-1.69,3.23-4.67V44.38c0-3.54-1.34-5-4.62-5h-4.8Zm.79-13.79h3c3.25,0,4.8-.63,4.8-4.26V44.42c0-3.11-1-4.26-3.83-4.26h-4Zm4,13.53H315V51.1h3.9c3.76,0,5.44,1.61,5.44,5.23V58.6C324.38,62.17,322.82,63.9,319.59,63.9Zm-4-.5h4c3,0,4.29-1.48,4.29-4.8V56.33c0-3.36-1.43-4.73-4.94-4.73h-3.4Z"/><path d="M319.59,64.5h-5.18V39.06h5.14c3.48,0,5,1.59,5,5.32V46c0,3-.94,4.44-3.21,4.94,2.47.54,3.72,2.36,3.72,5.41V58.6C325,62.51,323.19,64.5,319.59,64.5Zm-5-.18h5c3.53,0,5.25-1.87,5.25-5.72V56.36c0-3.19-1.32-4.93-4-5.32l-.58-.09.58-.09c2.93-.44,3.53-2.26,3.53-4.85V44.38c0-3.6-1.43-5.14-4.78-5.14h-5Zm5-.58h-4.38V51.26h3.73c3.7,0,5.28,1.51,5.28,5.07V58.6C324.22,62.11,322.75,63.74,319.59,63.74Zm-4.21-.18h4.21c3,0,4.46-1.57,4.46-5V56.33c0-3.43-1.53-4.9-5.11-4.9h-3.56Zm3.2-12.85h-3.37V39.82h4.34c3.46,0,4.17,1.84,4.17,4.6v1.69C323.72,50,321.91,50.71,318.58,50.71Zm-3.2-.17h3.2c3.29,0,5-.69,5-4.43V44.42c0-3.18-1.12-4.42-4-4.42h-4.17Z"/><path d="M319.59,64.75h-5.43V38.81h5.39c3.6,0,5.21,1.72,5.21,5.57V46c0,2.72-.78,4.25-2.57,4.94,2,.77,3.08,2.58,3.08,5.41V58.6C325.27,62.68,323.36,64.75,319.59,64.75Zm-4.75-.68h4.75c3.41,0,5-1.74,5-5.47V56.36c0-2.11-.57-3.53-1.76-4.34,1.12.85,1.64,2.26,1.64,4.31V58.6c0,3.63-1.6,5.39-4.88,5.39H315V51h3.9l-.32,0H315V39.57h4.59c3.88,0,4.42,2.33,4.42,4.85v1.69a5,5,0,0,1-1.13,3.7c1-.8,1.24-2.1,1.24-3.8V44.38c0-3.47-1.31-4.89-4.53-4.89h-4.71Zm.79-.76h4c2.91,0,4.21-1.45,4.21-4.71V56.33c0-3.3-1.41-4.65-4.86-4.65h-3.31Zm0-13h2.95c3.19,0,4.71-.63,4.71-4.18V44.42c0-3-1-4.17-3.74-4.17h-3.92Z"/><path d="M329.94,58.2c0,3,1.09,5.67,4.44,5.67s4.44-2.64,4.44-5.67V39.15h.76v19c0,3.46-1.37,6.42-5.2,6.42s-5.23-3-5.23-6.42v-19h.79Z"/><path d="M334.38,64.84c-3.48,0-5.48-2.43-5.48-6.67V38.9h1.29V58.2c0,2.47.73,5.42,4.19,5.42s4.19-2.95,4.19-5.42V38.9h1.26V58.17C339.83,62.41,337.84,64.84,334.38,64.84Zm-5-25.44V58.17c0,2.3.65,6.17,5,6.17s4.95-3.87,4.95-6.17V39.4h-.26V58.2c0,3.82-1.67,5.92-4.69,5.92s-4.69-2.1-4.69-5.92V39.4Z"/><path d="M334.38,64.68c-4.63,0-5.32-4.08-5.32-6.51V39.06h1V58.2c0,2.55.76,5.58,4.35,5.58s4.35-3,4.35-5.58V39.06h.93V58.17C339.66,60.6,339,64.68,334.38,64.68Zm-5.14-25.44V58.17c0,2.36.67,6.33,5.14,6.33s5.11-4,5.11-6.33V39.24h-.58v19c0,3.71-1.61,5.75-4.53,5.75s-4.52-2-4.52-5.75v-19Z"/><path d="M334.38,64.93c-4.84,0-5.57-4.24-5.57-6.76V38.81h1.47V58.2c0,2.43.71,5.33,4.1,5.33s4.1-2.9,4.1-5.33V38.81h1.43V58.17C339.91,60.69,339.2,64.93,334.38,64.93Zm-4.89-25.44V58.17c0,2.27.63,6.08,4.89,6.08s4.86-3.81,4.86-6.08V39.49h-.08V58.2c0,3.87-1.7,6-4.78,6s-4.77-2.14-4.77-6V39.49Z"/><path d="M352.1,51.24V52h-7.43V63.65h8.84v.76h-9.64V39.15h9.64v.76h-8.84V51.24Z"/><path d="M353.76,64.66H343.62V38.9h10.14v1.26h-8.84V51h7.43v1.22h-7.43V63.4h8.84Zm-9.64-.5h9.14V63.9h-8.84V51.71h7.43v-.22h-7.43V39.66h8.84V39.4h-9.14Z"/><path d="M353.59,64.5h-9.81V39.06h9.81V40h-8.84V51.15h7.44v.9h-7.44V63.56h8.84ZM344,64.32h9.46v-.58h-8.84V51.87H352v-.54h-7.43V39.82h8.84v-.58H344Z"/><path d="M353.84,64.75H343.53V38.81h10.31v1.44H345V50.9h7.44v1.4H345v11h8.84Zm-9.63-.68h9V64h-8.84V51.62h7.43v0h-7.43v-12h8.84v-.08h-9Z"/><path d="M362.49,64.41V39.91H357v-.76h11.8v.76h-5.53v24.5Z"/><path d="M363.53,64.66h-1.29V40.16h-5.48V38.9h12.3v1.26h-5.53Zm-.79-.5H363V39.66h5.53V39.4h-11.3v.26h5.48Z"/><path d="M363.37,64.5h-1V40h-5.48v-.94h12V40h-5.52Zm-.79-.18h.62V39.82h5.52v-.58H357.09v.58h5.49Z"/><path d="M363.62,64.75h-1.47V40.25h-5.48V38.81h12.47v1.44h-5.52Zm-.79-.68H363V39.57h5.52v-.08H357.34v.08h5.49Z"/><path d="M377.43,39.15c3.9,0,5.23,2.56,5.23,6.1v2.52c0,4-1.8,5.92-5.81,5.92h-3.61V64.41h-.79V39.15Zm-.58,13.78c3.54,0,5-1.55,5-5.12v-2.6c0-3.1-1.05-5.3-4.44-5.3h-4.19v13Z"/><path d="M373.49,64.66H372.2V38.9h5.23c3.64,0,5.48,2.14,5.48,6.35v2.52c0,4.21-1.92,6.17-6.06,6.17h-3.36Zm-.79-.5H373V53.44h3.86c3.85,0,5.56-1.75,5.56-5.67V45.25c0-3.94-1.63-5.85-5-5.85H372.7Zm4.15-11H373V39.66h4.44c3.15,0,4.69,1.82,4.69,5.55v2.6C382.12,51.53,380.49,53.18,376.85,53.18Zm-3.36-.5h3.36c3.39,0,4.77-1.41,4.77-4.87v-2.6c0-3.45-1.33-5.05-4.19-5.05h-3.94Z"/><path d="M373.33,64.5h-1V39.06h5.07c3.53,0,5.32,2.08,5.32,6.19v2.52c0,4.1-1.88,6-5.9,6h-3.52Zm-.79-.18h.62V53.6h3.69c3.9,0,5.72-1.85,5.72-5.83V45.25c0-4-1.73-6-5.14-6h-4.89ZM376.85,53h-3.69V39.82h4.27c3,0,4.52,1.76,4.52,5.39v2.6C382,51.46,380.43,53,376.85,53Zm-3.52-.17h3.52c3.46,0,4.93-1.51,4.93-5v-2.6c0-3.56-1.38-5.21-4.35-5.21h-4.1Z"/><path d="M373.58,64.75h-1.47V38.81h5.32c3.69,0,5.57,2.17,5.57,6.44v2.52C383,52,381,54,376.85,54h-3.27Zm-.79-.68h.12V53.35h3.94c3.79,0,5.47-1.72,5.47-5.58V45.25c0-3.88-1.6-5.76-4.89-5.76h-4.64Zm4.06-10.8h-3.94V39.57h4.52c3.17,0,4.77,1.9,4.77,5.64v2.6C382.2,51.59,380.55,53.27,376.85,53.27Zm-3.27-.67h3.27c3.32,0,4.68-1.39,4.68-4.79v-2.6c0-3.43-1.27-5-4.1-5h-3.85Z"/><path d="M397.31,45.25v.47h-.79v-.51c0-3-1.12-5.52-4.4-5.52s-4.44,2.49-4.44,5.49c0,6.46,9.67,6.27,9.67,13.13,0,3.5-1.45,6.28-5.31,6.28s-5.27-2.78-5.27-6.28V57.08h.76v1.27c0,3.06,1.19,5.48,4.51,5.48s4.51-2.42,4.51-5.48c0-6.39-9.67-6.17-9.67-13.14,0-3.68,1.55-6.2,5.2-6.24C395.9,39,397.31,41.78,397.31,45.25Z"/><path d="M392,64.84c-3.56,0-5.52-2.32-5.52-6.53V56.83h1.26v1.52c0,2.38.74,5.23,4.26,5.23s4.26-2.85,4.26-5.23c0-3-2.22-4.47-4.56-6-2.51-1.68-5.11-3.41-5.11-7.1,0-4.15,1.94-6.46,5.45-6.49s5.48,2.32,5.48,6.53V46h-1.29v-.76c0-2.4-.72-5.27-4.15-5.27s-4.19,2.85-4.19,5.24c0,3,2.24,4.55,4.61,6.13s5.06,3.39,5.06,7C397.6,62.52,395.62,64.84,392,64.84Zm-5-7.51v1c0,2.25.66,6,5,6s5.06-3.78,5.06-6c0-3.35-2.35-4.92-4.84-6.58s-4.83-3.24-4.83-6.55c0-3.7,1.66-5.74,4.69-5.74s4.65,2.05,4.65,5.77v.26h.29v-.22c0-2.25-.65-6-5-6-4.09,0-4.95,3.28-4.95,6,0,3.43,2.48,5.08,4.88,6.68s4.79,3.2,4.79,6.46c0,3.69-1.69,5.73-4.76,5.73s-4.76-2-4.76-5.73v-1Z"/><path d="M392,64.68c-3.45,0-5.35-2.26-5.35-6.37V57h.93v1.35c0,2.46.77,5.39,4.42,5.39s4.43-2.93,4.43-5.39c0-3.08-2.26-4.58-4.64-6.18s-5-3.35-5-7c0-4.05,1.87-6.29,5.28-6.33s5.32,2.26,5.32,6.37v.55h-1v-.59c0-2.48-.75-5.43-4.31-5.43s-4.35,2.93-4.35,5.4c0,3.13,2.27,4.66,4.68,6.27s5,3.33,5,6.86C397.43,62.42,395.52,64.68,392,64.68Zm-5.18-7.51v1.14c0,2.31.68,6.19,5.18,6.19s5.22-3.88,5.22-6.19c0-3.43-2.49-5.1-4.9-6.71s-4.77-3.2-4.77-6.42c0-3.6,1.61-5.58,4.53-5.58s4.48,2,4.48,5.61v.42h.62v-.38c0-2.31-.66-6.19-5.14-6.19-4.22,0-5.11,3.37-5.11,6.15,0,3.51,2.52,5.19,4.95,6.82s4.72,3.15,4.72,6.32c0,3.59-1.63,5.57-4.6,5.57s-4.6-2-4.6-5.57V57.17Z"/><path d="M392,64.93c-3.61,0-5.6-2.35-5.6-6.62V56.75h1.43v1.6c0,3.41,1.4,5.14,4.17,5.14s4.18-1.73,4.18-5.14c0-3-2.2-4.42-4.53-6-2.53-1.69-5.14-3.43-5.14-7.17,0-4.21,2-6.54,5.53-6.58s5.57,2.35,5.57,6.62v.8h-1.47v-.84c0-3.44-1.37-5.18-4.06-5.18S388,41.76,388,45.18c0,3,2.23,4.49,4.58,6.06,2.51,1.68,5.09,3.41,5.09,7.07C397.68,62.58,395.68,64.93,392,64.93Zm-4.93-7.51v.89c0,2.22.64,5.94,4.93,5.94s5-3.72,5-5.94c0-3.3-2.44-4.93-4.79-6.51s-4.88-3.26-4.88-6.62c0-3.76,1.7-5.83,4.78-5.83s4.73,2.08,4.73,5.86v.17H397v-.13c0-2.22-.63-5.94-4.89-5.94-4,0-4.86,3.23-4.86,5.9,0,3.38,2.46,5,4.84,6.61s4.83,3.22,4.83,6.53c0,3.75-1.72,5.82-4.85,5.82s-4.85-2.07-4.85-5.82v-.93Z"/><path d="M294.79,63.28a.87.87,0,0,1,.59.73h-.15a.94.94,0,0,0-.77-.74v-.13h5.37v.14Z"/><path d="M295.67,64.26H295l0-.22c0-.24-.23-.42-.59-.53l-.18,0v-.15l-.69-.28h.69v-.14h5.87v.64h-4.61a1,1,0,0,1,.16.45Z"/><path d="M295.78,55.11h2.72c.76,0,1.36.26,1.36.94s-.58.93-1.34.93h0v-.13h0c.66,0,1.18-.22,1.18-.8s-.54-.8-1.22-.8H297a.8.8,0,0,1,.65.83c0,.65-.6.9-1.34.9h-.53c-.76,0-1.36-.26-1.36-.93S295,55.11,295.78,55.11Zm0,1.73h.53c.66,0,1.2-.21,1.2-.79s-.54-.8-1.2-.8h-.53c-.65,0-1.19.21-1.19.8S295.12,56.84,295.77,56.84Z"/><path d="M298.52,57.23h-.28V56.6h.25c.66,0,1-.19,1-.55s-.32-.55-1-.55h-.73a1.18,1.18,0,0,1,.14.58c0,.72-.59,1.15-1.59,1.15h-.53c-1,0-1.61-.44-1.61-1.18s.6-1.19,1.61-1.19h2.72c1,0,1.61.43,1.61,1.19S299.52,57.23,298.52,57.23Zm-2.75-1.73c-.62,0-.94.18-.94.55s.51.54.94.54h.53c.43,0,.95-.09.95-.54s-.32-.55-.95-.55Z"/><path d="M295.78,47.15h2.72c.76,0,1.36.26,1.36.94s-.58.93-1.34.93h0v-.13h0c.66,0,1.18-.22,1.18-.8s-.54-.8-1.22-.8H297a.8.8,0,0,1,.65.83c0,.65-.6.9-1.34.9h-.53c-.76,0-1.36-.26-1.36-.93S295,47.15,295.78,47.15Zm0,1.73h.53c.66,0,1.2-.21,1.2-.79s-.54-.8-1.2-.8h-.53c-.65,0-1.19.21-1.19.8S295.12,48.88,295.77,48.88Z"/><path d="M298.52,49.27h-.28v-.63h.25c.66,0,1-.19,1-.55s-.32-.55-1-.55h-.73a1.18,1.18,0,0,1,.14.58c0,.72-.59,1.15-1.59,1.15h-.53c-1,0-1.61-.44-1.61-1.18s.6-1.19,1.61-1.19h2.72c1,0,1.61.43,1.61,1.19S299.52,49.27,298.52,49.27Zm-2.75-1.73c-.62,0-.94.18-.94.55s.51.54.94.54h.53c.43,0,.95-.09.95-.54s-.32-.55-.95-.55Z"/><path d="M294.62,39.37v1.69h-.16V39.23h.16l5.21,1.3v.15Z"/><polygon points="294.87 41.31 294.21 41.31 294.21 38.98 294.62 38.98 300.08 40.34 300.08 41 294.87 39.69 294.87 41.31"/><path d="M297.07,33.14V32h.15v1.12Z"/><rect x="296.82" y="31.77" width="0.65" height="1.61"/><path d="M295.8,24.1c1.49,0,2,1.67,3.83,1.69h0V24.13h.16v1.8h-.12c-2,0-2.47-1.69-3.91-1.69-.67,0-1.22.18-1.22.78s.58.78,1.22.78h.3v.13h-.29c-.74,0-1.38-.24-1.38-.91S295,24.1,295.8,24.1Z"/><path d="M300.08,26.18h-.37a3.68,3.68,0,0,1-2.45-1,2.35,2.35,0,0,0-1.46-.69c-1,0-1,.39-1,.53,0,.44.53.53,1,.53h.55v.63h-.54c-1,0-1.63-.42-1.63-1.16,0-.44.21-1.17,1.62-1.17a2.94,2.94,0,0,1,1.86.83,3.21,3.21,0,0,0,1.75.85V23.88h.67Z"/><path d="M295.78,18c-.76,0-1.35-.26-1.35-.93s.59-.93,1.35-.93h2.73c.75,0,1.35.26,1.35.93s-.6.93-1.35.93Zm2.73-.14c.66,0,1.2-.21,1.2-.79s-.54-.8-1.2-.8h-2.74c-.65,0-1.19.22-1.19.8s.54.79,1.19.79Z"/><path d="M298.51,18.27h-2.73c-1,0-1.6-.44-1.6-1.18s.6-1.18,1.6-1.18h2.73c1,0,1.6.44,1.6,1.18S299.51,18.27,298.51,18.27Zm-2.74-1.73c-.43,0-.94.1-.94.55s.32.54.94.54h2.74c.63,0,.95-.18.95-.54s-.32-.55-.95-.55Z"/><path d="M294.79,9.28a.87.87,0,0,1,.59.73h-.15a.94.94,0,0,0-.77-.74V9.14h5.37v.14Z"/><path d="M295.67,10.26H295l0-.22c0-.24-.23-.42-.59-.53l-.18,0V9.31L293.52,9h.69V8.89h5.87v.64h-4.6a1.09,1.09,0,0,1,.15.45Z"/><path d="M294.62,1.29V3h-.16V1.15h.16l5.21,1.3V2.6Z"/><polygon points="294.87 3.23 294.21 3.23 294.21 0.9 294.62 0.9 300.08 2.26 300.08 2.92 294.87 1.61 294.87 3.23"/></g></g></svg>